<svg viewBox="0 0 512 512" xmlns="http://www.w3.org/2000/svg"><path d="m331.601562 121s-.300781 0-.601562 0c-38.402344 0-61.800781 24.300781-75 45.902344-13.199219-21.601563-37.5-45.300782-75.601562-45.902344-47.699219.300781-86.996094 41.699219-89.398438 94.199219-2.699219 63.300781 44.699219 105 116.101562 167.699219 27.300782 23.703124 31.199219 27.300781 48.898438 43.199218 17.699219-15.898437 21.597656-19.496094 48.898438-43.199218 71.402343-62.699219 118.800781-104.398438 116.101562-167.699219-2.402344-52.5-41.699219-93.898438-89.398438-94.199219zm0 0" fill="#ff7cb9"/><g fill="#fed2a4"><path d="m241 0h30v61h-30zm0 0"/><path d="m241 451h30v61h-30zm0 0"/><path d="m86.296875 65.085938 42.496094 42.496093-21.210938 21.210938-42.496093-42.496094zm0 0"/><path d="m0 241h61v30h-61zm0 0"/><path d="m107.585938 383.203125 21.210937 21.210937-42.496094 42.496094-21.210937-21.210937zm0 0"/></g><path d="m404.417969 383.203125 42.496093 42.492187-21.210937 21.210938-42.496094-42.492188zm0 0" fill="#ffbd86"/><path d="m451 241h61v30h-61zm0 0" fill="#ffbd86"/><path d="m425.699219 65.082031 21.210937 21.210938-42.492187 42.496093-21.210938-21.210937zm0 0" fill="#ffbd86"/><path d="m256 0h15v61h-15zm0 0" fill="#ffbd86"/><path d="m256 451h15v61h-15zm0 0" fill="#ffbd86"/><path d="m421 215.199219c2.699219 63.300781-44.699219 105-116.101562 167.699219-27.300782 23.703124-31.199219 27.300781-48.898438 43.199218v-259.195312c13.199219-21.601563 36.597656-45.902344 75-45.902344h.601562c47.699219.300781 86.996094 41.699219 89.398438 94.199219zm0 0" fill="#ff5ca8"/></svg>