<svg viewBox="-142 0 512 512" xmlns="http://www.w3.org/2000/svg"><path d="m94.90625 502h-64.359375v-39.433594h24.929687c21.777344 0 39.429688 17.65625 39.429688 39.433594zm0 0" fill="#4dbaf6"/><path d="m94.90625 502h59.246094v-39.433594h-19.8125c-21.777344 0-39.433594 17.65625-39.433594 39.433594zm0 0" fill="#fe8f8d"/><g fill="#feda9b"><path d="m154.152344 382.757812v79.808594h-36.980469v-73.605468zm0 0"/><path d="m105.34375 96.539062c-10.984375-4.046874-18.816406-14.605468-18.816406-26.996093v-12.425781c0-15.886719 12.878906-28.761719 28.761718-28.761719 15.886719 0 28.761719 12.875 28.761719 28.761719v12.425781zm0 0"/><path d="m45.097656 17.746094c15.882813 0 28.761719 12.878906 28.761719 28.761718v23.035157c0 15.886719-12.878906 28.761719-28.761719 28.761719-15.886718 0-28.761718-12.875-28.761718-28.761719v-23.035157c0-15.882812 12.875-28.761718 28.761718-28.761718zm0 0"/></g><path d="m80.191406 389.734375c45.378906 0 90.304688-9.003906 132.175782-26.492187l5.3125-2.21875-67.292969-111.585938h-70.195313zm0 0" fill="#fe8f8d"/><path d="m10 249.4375v17.828125c0 20.882813 7.261719 41.121094 20.542969 57.242187v138.058594h49.648437v-213.128906zm0 0" fill="#c9f3ff"/><path d="m115.289062 98.304688c19.382813 0 35.097657 15.714843 35.097657 35.097656v116.03125h-70.195313v-116.03125c0-19.382813 15.714844-35.097656 35.097656-35.097656zm0 0" fill="#ffb9b7"/><path d="m45.097656 98.304688c3.953125 0 7.757813.65625 11.300782 1.863281 21.25 7.230469 44.75 3.605469 61.800781-10.992188 2.097656-1.796875 4.132812-3.679687 6.105469-5.652343l1.289062-1.285157c7.878906-7.871093 20.714844-8.445312 28.859375-.847656 8.554687 7.976563 8.726563 21.378906.523437 29.574219l-1.628906 1.628906c-20.363281 20.34375-45.640625 33.976562-73.152344 39.8125v97.03125h-70.195312v-116.035156c0-19.382813 15.714844-35.097656 35.097656-35.097656zm0 0" fill="#4dbaf6"/><path d="m172.507812 28.355469c0 10.136719-8.21875 18.355469-18.355468 18.355469-10.136719 0-18.355469-8.21875-18.355469-18.355469s8.21875-18.355469 18.355469-18.355469c10.136718 0 18.355468 8.21875 18.355468 18.355469zm0 0" fill="#ff5d5d"/><path d="m150.390625 182.578125c-2.640625 0-5.21875 1.0625-7.078125 2.933594-1.863281 1.859375-2.921875 4.429687-2.921875 7.066406 0 2.632813 1.058594 5.210937 2.921875 7.070313 1.859375 1.859374 4.4375 2.929687 7.078125 2.929687 2.628906 0 5.199219-1.066406 7.070313-2.929687 1.859374-1.859376 2.929687-4.4375 2.929687-7.070313 0-2.640625-1.070313-5.207031-2.929687-7.066406-1.871094-1.871094-4.441407-2.933594-7.070313-2.933594zm0 0"/><path d="m226.242188 355.859375-65.855469-109.207031v-18.640625c0-5.523438-4.476563-10-10-10-5.523438 0-10 4.476562-10 10v11.425781h-50.191407v-79.148438c18.039063-4.824218 35-12.847656 50.191407-23.679687v20.535156c0 5.519531 4.476562 10 10 10 5.523437 0 10-4.480469 10-10v-37.453125c.007812-.007812.015625-.015625.027343-.027344l1.628907-1.625c5.917969-5.910156 9.097656-13.773437 8.953125-22.136718-.140625-8.363282-3.59375-16.117188-9.722656-21.828125-2.210938-2.0625-4.644532-3.726563-7.21875-5.003907v-11.953124c0-.136719-.011719-.273438-.011719-.410157.035156 0 .074219.003907.109375.003907 15.636718 0 28.355468-12.722657 28.355468-28.355469 0-15.636719-12.71875-28.355469-28.355468-28.355469-12.789063 0-23.625 8.511719-27.144532 20.171875-3.699218-1.179687-7.636718-1.816406-11.71875-1.816406-13.773437 0-25.886718 7.230469-32.761718 18.089843-4.445313-16.507812-19.539063-28.699218-37.429688-28.699218-21.375 0-38.761718 17.390625-38.761718 38.761718v23.035157c0 10.878906 4.511718 20.71875 11.753906 27.765625-10.976563 8.234375-18.089844 21.347656-18.089844 36.09375v133.859375c0 21.925781 7.269531 43.34375 20.542969 60.726562v174.011719c0 5.523438 4.476562 10 10 10h123.609375c5.523437 0 10-4.476562 10-10v-112.386719c17.679687-4.339843 35.066406-10.042969 52.070312-17.144531l5.308594-2.21875c2.683594-1.121094 4.746094-3.355469 5.652344-6.117188.90625-2.765624.558594-5.785156-.941406-8.273437zm-131.335938 116.371094c-1.632812-2.15625-3.445312-4.171875-5.402344-6.035157.4375-1.125.6875-2.34375.6875-3.625v-62.988281c5.679688-.15625 11.339844-.445312 16.980469-.875v62.023438c-4.710937 3.113281-8.863281 7.003906-12.265625 11.5zm59.246094-452.230469c4.609375 0 8.355468 3.746094 8.355468 8.355469 0 4.605469-3.746093 8.355469-8.355468 8.355469-4.605469 0-8.355469-3.75-8.355469-8.355469 0-4.609375 3.75-8.355469 8.355469-8.355469zm-57.625 37.117188c0-10.347657 8.417968-18.761719 18.761718-18.761719 10.347657 0 18.761719 8.414062 18.761719 18.761719v9.523437c-5.664062 1.230469-11.078125 4.078125-15.523437 8.523437l-1.289063 1.285157c-1.78125 1.78125-3.648437 3.503906-5.542969 5.128906-1.824218 1.5625-3.738281 2.972656-5.730468 4.242187-5.746094-3.304687-9.4375-9.507812-9.4375-16.277343zm-11.75 36.28125c-3.097656.386718-6.253906.507812-9.4375.347656 1.914062-2.386719 3.550781-5 4.863281-7.796875 1.246094 2.648437 2.78125 5.148437 4.574219 7.449219zm-58.441406-23.855469v-23.035157c0-10.34375 8.417968-18.761718 18.761718-18.761718s18.761719 8.417968 18.761719 18.761718v23.035157c0 10.347656-8.417969 18.761719-18.761719 18.761719s-18.761718-8.414063-18.761718-18.761719zm26.839843 40.089843c25.316407 8.617188 52.054688 3.808594 71.527344-12.859374 2.28125-1.957032 4.527344-4.035157 6.667969-6.171876l1.285156-1.285156c4.164062-4.160156 10.878906-4.433594 14.976562-.613281 2.121094 1.980469 3.316407 4.65625 3.367188 7.542969.046875 2.890625-1.050781 5.601562-3.09375 7.644531l-1.628906 1.628906c-18.828125 18.808594-42.394532 31.640625-68.160156 37.105469-4.621094.980469-7.921876 5.058594-7.921876 9.78125v87.03125h-50.195312v-106.035156c0-13.839844 11.257812-25.097656 25.097656-25.097656 2.769532 0 5.488282.449218 8.078125 1.328124zm-33.175781 157.632813v-7.828125h50.195312v193.132812h-29.648437v-128.0625c0-2.320312-.808594-4.570312-2.285156-6.359374-11.777344-14.292969-18.261719-32.363282-18.261719-50.882813zm20.546875 224.734375v-19.433594h14.929687c12.71875 0 23.578126 8.113282 27.683594 19.433594zm103.605469 0h-37.496094c4.101562-11.320312 14.960938-19.433594 27.683594-19.433594h9.8125zm0-39.433594h-16.980469v-55.96875c5.6875-.761718 11.347656-1.660156 16.980469-2.699218zm-53.960938-73v-120.128906h54.546875l58.367188 96.78125c-36.160157 14.375-74.070313 22.199219-112.914063 23.347656zm0 0"/></svg>