<?xml version="1.0" encoding="iso-8859-1"?>
<!-- Generator: Adobe Illustrator 19.0.0, SVG Export Plug-In . SVG Version: 6.00 Build 0)  -->
<svg version="1.1" id="Capa_1" xmlns="http://www.w3.org/2000/svg" xmlns:xlink="http://www.w3.org/1999/xlink" x="0px" y="0px"
	 viewBox="0 0 512 512" style="enable-background:new 0 0 512 512;" xml:space="preserve">
<circle style="fill:#00EFD1;" cx="256" cy="256" r="256"/>
<path style="fill:#00AD95;" d="M512,256c0-13.088-0.987-25.945-2.882-38.504l-65.311-65.177c-5.299-5.577-12.772-9.07-21.025-9.07
	c-15.973,0-29.042,13.069-29.042,29.042v27.393c0,6.498,2.756,12.375,7.151,16.543l9.277,9.538v3.445l-63.422-63.459
	c-23.18-23.307-55.276-37.739-90.745-37.739c-41.548,0-78.47,19.799-101.851,50.475l-35.888-35.239h-11.597v11.063l-11.419-11.063
	H83.192v10.875l-11.419-10.875H60.176v56.435c0,6.336,2.62,12.081,6.824,16.227l9.603,9.59v24.071h-6.127v100.436
	c0,5.223,2.137,9.947,5.585,13.346l146.984,146.539C233.835,511.281,244.833,512,256,512C397.385,512,512,397.385,512,256z"/>
<circle style="fill:#FFFFFF;" cx="256" cy="256" r="127.99"/>
<g>
	<path style="fill:#FFF5CB;" d="M383.99,256c0,70.69-57.3,127.99-127.99,127.99V128.01C326.69,128.01,383.99,185.31,383.99,256z"/>
	<circle style="fill:#FFF5CB;" cx="256" cy="256" r="83.08"/>
</g>
<path style="fill:#FFDB2D;" d="M339.08,256c0,45.88-37.2,83.08-83.08,83.08V172.92C301.88,172.92,339.08,210.12,339.08,256z"/>
<path style="fill:#FF73AF;" d="M292.41,220.182c-21.454-9.961-36.41,11.752-36.41,11.752s-14.956-21.713-36.41-11.752
	c-21.418,9.944-25.273,60.568,36.41,82.867C317.683,280.75,313.828,230.126,292.41,220.182z"/>
<path style="fill:#FF127F;" d="M256,303.05v-71.12c0,0,14.96-21.71,36.41-11.75C313.83,230.13,317.68,280.75,256,303.05z"/>
<path style="fill:#FFFFFF;" d="M422.782,143.249L422.782,143.249c-15.973,0-29.042,13.069-29.042,29.042v27.393
	c0,10.34,6.961,19.129,16.427,21.924v31.568h25.229v-31.568c9.466-2.795,16.427-11.583,16.427-21.924v-27.393
	C451.824,156.318,438.755,143.249,422.782,143.249z"/>
<path style="fill:#FFF5CB;" d="M451.82,172.29v27.39c0,10.35-6.96,19.13-16.42,21.93v31.57h-12.62V143.25
	C438.75,143.25,451.82,156.32,451.82,172.29z"/>
<path style="fill:#FF73AF;" d="M422.782,368.751L422.782,368.751c-10.351,0-18.742-8.391-18.742-18.742V249.573h37.484v100.436
	C441.523,360.36,433.132,368.751,422.782,368.751z"/>
<path style="fill:#FF127F;" d="M441.52,249.57v100.44c0,10.35-8.39,18.74-18.74,18.74V249.57H441.52z"/>
<path style="fill:#FFFFFF;" d="M106.664,143.249v42.207c0,3.153-2.556,5.709-5.709,5.709l0,0c-3.153,0-5.709-2.556-5.709-5.709
	v-42.207H83.192v42.207c0,3.153-2.556,5.709-5.709,5.709l0,0c-3.153,0-5.709-2.556-5.709-5.709v-42.207H60.176v56.435
	c0,10.34,6.961,19.128,16.427,21.924v31.568h25.229v-31.568c9.466-2.795,16.427-11.583,16.427-21.924v-56.435L106.664,143.249
	L106.664,143.249z"/>
<path style="fill:#FFF5CB;" d="M118.26,143.25v56.43c0,10.35-6.96,19.13-16.43,21.93v31.57H89.22V143.25h6.02v42.21
	c0,1.58,0.64,3,1.67,4.04c1.04,1.03,2.47,1.67,4.04,1.67c3.16,0,5.71-2.56,5.71-5.71v-42.21L118.26,143.25L118.26,143.25z"/>
<path style="fill:#FF73AF;" d="M89.218,368.751L89.218,368.751c-10.351,0-18.742-8.391-18.742-18.742V249.573h37.483v100.436
	C107.96,360.36,99.569,368.751,89.218,368.751z"/>
<path style="fill:#FF127F;" d="M107.96,249.57v100.44c0,10.35-8.39,18.74-18.74,18.74V249.57H107.96z"/>
<g>
</g>
<g>
</g>
<g>
</g>
<g>
</g>
<g>
</g>
<g>
</g>
<g>
</g>
<g>
</g>
<g>
</g>
<g>
</g>
<g>
</g>
<g>
</g>
<g>
</g>
<g>
</g>
<g>
</g>
</svg>
