<?xml version="1.0" encoding="iso-8859-1"?>
<!-- Generator: Adobe Illustrator 19.0.0, SVG Export Plug-In . SVG Version: 6.00 Build 0)  -->
<svg version="1.1" id="Capa_1" xmlns="http://www.w3.org/2000/svg" xmlns:xlink="http://www.w3.org/1999/xlink" x="0px" y="0px"
	 viewBox="0 0 512 512" style="enable-background:new 0 0 512 512;" xml:space="preserve">
<path style="fill:#FE5578;" d="M203.95,381.915C98.247,361.65,95.566,464.064,159.727,495.74
	c56.558,27.922,119.111,12.298,133.142,8.204c1.888-0.551,3.497-1.77,4.538-3.439c7.735-12.403,39.682-68.406,28.085-130.405
	C312.336,299.764,213.007,274.667,203.95,381.915z M267.909,373.59c-7.042,5.338-17.078,3.956-22.416-3.086
	c-5.338-7.042-3.956-17.078,3.086-22.416c7.042-5.338,17.078-3.956,22.416,3.086C276.333,358.217,274.951,368.253,267.909,373.59z"
	/>
<path style="fill:#FE3F67;" d="M175.728,482.418c-40.272-19.881-54.201-67.627-32.859-95.417
	c-41.677,22.015-31.046,85.089,16.859,108.738c56.558,27.922,119.111,12.298,133.142,8.204c1.888-0.551,3.497-1.77,4.538-3.439
	c1.126-1.806,2.768-4.542,4.711-8.08C280.421,497.752,225.734,507.106,175.728,482.418z"/>
<path style="fill:#FF97A4;" d="M105.164,179.727c-98.706-42.906-123.735,56.44-68.061,101.388
	c49.077,39.622,113.532,38.067,128.12,37.142c1.963-0.125,3.799-0.962,5.18-2.363c10.261-10.409,53.69-58.064,55.942-121.098
	C228.898,123.287,137.471,77.061,105.164,179.727z M169.394,185.601c-8.04,3.667-17.53,0.122-21.197-7.917
	c-3.667-8.04-0.123-17.53,7.917-21.197c8.04-3.667,17.53-0.122,21.197,7.917C180.978,172.443,177.433,181.934,169.394,185.601z"/>
<path style="fill:#FF7D8D;" d="M181.223,303.678c-14.587,0.925-79.044,2.48-128.12-37.142
	c-30.582-24.69-36.806-65.788-19.851-90.711c-34.534,19.056-33.995,74.734,3.851,105.289
	c49.077,39.622,113.532,38.066,128.12,37.142c1.963-0.125,3.799-0.962,5.18-2.363c2.281-2.314,6.204-6.474,10.947-12.229
	C181.307,303.668,181.266,303.676,181.223,303.678z"/>
<path style="fill:#FFCBD1;" d="M307.552,134.521c-23.948,58.352-4.041,119.676,1.014,133.391c0.68,1.846,2.007,3.366,3.745,4.289
	c12.907,6.859,70.984,34.862,132.033,19.009c69.257-17.984,87.432-118.808-20.184-120.434
	C437.074,63.926,334.72,68.326,307.552,134.521z M364.756,127.06c6.657-5.811,16.764-5.126,22.576,1.531
	c5.811,6.657,5.126,16.764-1.531,22.576c-6.657,5.811-16.764,5.126-22.576-1.531C357.414,142.979,358.1,132.871,364.756,127.06z"/>
<path style="fill:#FFA4AF;" d="M483.341,188.508c15.202,31.542-8.133,75.422-51.58,86.704
	c-54.279,14.095-106.205-6.477-126.127-16.034c1.168,3.796,2.204,6.762,2.932,8.736c0.68,1.846,2.007,3.366,3.745,4.29
	c12.907,6.859,70.984,34.862,132.033,19.009C495.858,277.834,519.092,218.637,483.341,188.508z"/>
<path style="fill:#FDDA6B;" d="M510.91,3.971c-2.226-3.815-7.125-5.104-10.941-2.879c-24.643,14.375-63.707,24.958-109.583,31.754
	l8.271-12.407c2.451-3.676,1.458-8.644-2.219-11.094c-3.676-2.45-8.644-1.457-11.094,2.219l-10.587,15.88l-9.1-9.1
	c-3.124-3.123-8.189-3.123-11.313,0c-3.125,3.125-3.125,8.189,0,11.314l6.903,6.903c-28.445,3.08-58.703,4.848-89.234,5.306
	l7.144-14.288c1.976-3.952,0.375-8.758-3.578-10.733c-3.952-1.976-8.757-0.373-10.733,3.577l-8.37,16.739l-18.818-18.818
	c-3.124-3.123-8.189-3.123-11.313,0c-3.125,3.125-3.125,8.189,0,11.314l12.187,12.187c-20.662-0.338-41.187-1.277-61.099-2.816
	l5.724-11.449c1.976-3.952,0.375-8.758-3.578-10.733c-3.951-1.976-8.757-0.373-10.733,3.577l-7.811,15.623l-18.633-24.845
	c-2.651-3.534-7.664-4.252-11.2-1.601c-3.535,2.651-4.251,7.666-1.6,11.2l10.942,14.589c-54-6.552-100.542-17.984-128.511-34.298
	C8.218-1.134,3.319,0.154,1.092,3.971s-0.938,8.715,2.879,10.941C27.892,28.866,63.979,39.797,111.23,47.4
	c13.003,2.092,26.649,3.882,40.771,5.368V168c0,4.418,3.582,8,8,8c4.418,0,8-3.582,8-8V54.298c25.599,2.221,52.534,3.466,80,3.668
	V360c0,4.418,3.582,8,8,8c4.418,0,8-3.582,8-8V57.966c36.203-0.266,71.497-2.336,103.999-6.076v84.112c0,4.418,3.582,8,8,8
	s8-3.582,8-8V49.885c5.695-0.775,11.29-1.603,16.771-2.485c47.251-7.604,83.339-18.534,107.259-32.488
	C511.847,12.685,513.136,7.787,510.91,3.971z"/>
<g>
</g>
<g>
</g>
<g>
</g>
<g>
</g>
<g>
</g>
<g>
</g>
<g>
</g>
<g>
</g>
<g>
</g>
<g>
</g>
<g>
</g>
<g>
</g>
<g>
</g>
<g>
</g>
<g>
</g>
</svg>
